<?xml version="1.0" standalone="no"?>
<!DOCTYPE svg PUBLIC "-//W3C//DTD SVG 20010904//EN"
 "http://www.w3.org/TR/2001/REC-SVG-20010904/DTD/svg10.dtd">
<svg version="1.0" xmlns="http://www.w3.org/2000/svg"
 width="700.000000pt" height="700.000000pt" viewBox="0 0 700.000000 700.000000"
 preserveAspectRatio="xMidYMid meet">
<metadata>
Created by potrace 1.14, written by Peter Selinger 2001-2017
</metadata>
<g transform="translate(0.000000,700.000000) scale(0.100000,-0.100000)"
fill="#000000" stroke="none">
<path d="M1735 6695 c-306 -48 -583 -244 -734 -518 -62 -111 -105 -249 -119
-372 -8 -81 -7 -4555 1 -4626 9 -75 50 -214 86 -294 90 -199 268 -383 466
-482 81 -41 186 -77 270 -94 109 -22 4189 -21 4231 1 99 50 151 108 176 195
21 73 19 5938 -1 6000 -27 79 -80 138 -159 177 l-47 23 -2045 1 c-1605 2
-2062 -1 -2125 -11z m3805 -712 c0 -79 1 -919 1 -1868 0 -949 -1 -1738 -1
-1753 l0 -28 -1847 0 c-1017 -1 -1877 -4 -1913 -8 -36 -3 -83 -11 -105 -16
-22 -6 -47 -12 -55 -14 -8 -2 -42 -14 -75 -26 -33 -12 -66 -22 -73 -23 -11 -2
-13 299 -13 1733 0 954 3 1755 6 1780 8 66 67 178 123 236 54 53 133 99 206
117 34 9 523 12 1896 12 l1850 0 0 -142z m0 -4671 l0 -437 -1852 0 c-1757 1
-1856 2 -1913 19 -79 24 -133 57 -193 117 -171 173 -160 465 23 626 66 57 122
85 210 106 11 3 854 5 1873 6 l1852 1 0 -438z"/>
</g>
</svg>
